<?xml version="1.0" encoding="UTF-8" standalone="no"?>
<!-- Created with Inkscape (http://www.inkscape.org/) -->

<svg
   width="157.22957mm"
   height="225.425mm"
   viewBox="0 0 157.22957 225.425"
   version="1.1"
   id="svg5"
   inkscape:version="1.1.1 (3bf5ae0d25, 2021-09-20)"
   sodipodi:docname="fire-logo.svg"
   xmlns:inkscape="http://www.inkscape.org/namespaces/inkscape"
   xmlns:sodipodi="http://sodipodi.sourceforge.net/DTD/sodipodi-0.dtd"
   xmlns="http://www.w3.org/2000/svg"
   xmlns:svg="http://www.w3.org/2000/svg">
  <sodipodi:namedview
     id="namedview7"
     pagecolor="#ffffff"
     bordercolor="#666666"
     borderopacity="1.0"
     inkscape:pageshadow="2"
     inkscape:pageopacity="0.0"
     inkscape:pagecheckerboard="0"
     inkscape:document-units="mm"
     showgrid="false"
     inkscape:zoom="0.64052329"
     inkscape:cx="736.11687"
     inkscape:cy="495.68846"
     inkscape:window-width="1920"
     inkscape:window-height="938"
     inkscape:window-x="0"
     inkscape:window-y="0"
     inkscape:window-maximized="1"
     inkscape:current-layer="layer1" />
  <defs
     id="defs2" />
  <g
     inkscape:label="Layer 1"
     inkscape:groupmode="layer"
     id="layer1"
     transform="translate(89.585332,-17.384722)">
    <path
       style="fill:#800080;stroke:none;stroke-width:0.264583"
       d="m -22.562305,17.384722 c 0.76914,5.813716 3.04535,11.103346 2.04814,17.197917 -2.27859,13.924227 -10.7823,25.69845 -18.98147,36.822063 -7.2099,9.78112 -14.32825,20.00647 -19.22648,31.175848 -5.26838,12.01367 -8.25368,26.24799 -6.66856,39.39911 1.39727,11.59457 4.86701,22.39539 8.9617,33.36131 h -1.05833 c 0.0254,-1.05728 -3.09377,-2.44449 -3.96875,-3.26311 -3.58775,-3.35756 -6.41085,-6.9506 -8.99583,-11.12731 -4.71647,-7.6208 -7.14375,-16.87566 -8.89291,-25.56166 -0.64532,-3.20437 -0.58738,-6.67174 -1.42584,-9.78959 h -0.26459 c -0.73766,3.25332 -2.80881,6.36376 -3.91901,9.53532 -1.84282,5.26521 -2.96703,10.73917 -3.94996,16.17425 -1.016,5.61789 -0.76279,11.80465 -0.10266,17.42783 2.19737,18.71504 8.81354,34.98559 20.87854,49.72183 10.08247,12.31476 25.22855,21.16719 41.33268,19.63367 6.57621,-0.62627 13.51094,-3.14987 17.2108798,-9.04081 8.80082977,-14.01366 -5.0339698,-29.85453 -12.4483798,-40.97682 -15.89855,-23.8498 -23.72651,-54.11152 -10.38411,-80.73152 3.10806,-6.2013 7.59857,-12.287778 12.90347,-16.780928 1.4478,-1.22634 2.55085,-2.87761 4.3598,-3.59198 -1.06362,5.09561 -3.54197,9.93351 -4.64211,15.081248 -2.26642,10.60635 -1.04405,21.95036 3.74412,31.75 7.0450596,14.41873 19.3553296,24.91528 30.25616,36.31141 7.67821,8.0272 15.05294,16.68674 17.086,27.98234 1.31101,7.28371 -1.34514,13.20667 -2.78792,20.10833 -2.17064,-2.90883 -2.87972,-7.7171 -4.55083,-11.05958 -4.60058,-9.20248 -10.78495,-17.417 -19.7458504,-22.7637 -2.82284,-1.68407 -6.22777,-3.94361 -9.56998,-4.27672 0.68685,1.96718 2.28653,3.66104 3.43958,5.39036 1.84308999,2.7641 3.4888,5.6388 5.14641,8.5164 5.81369,10.09333 9.3673104,24.03449 4.23704,35.04116 -1.43669,3.08213 -3.48245,6.2058 -6.07034,8.45237 -1.74281003,1.51289 -5.1898,3.32185 -6.22353,5.30596 12.16978,-2.85988 24.1207404,-4.7117 35.4541704,-10.66192 C 40.47812,226.9715 49.38505,219.90606 55.90597,210.79514 68.44563,193.27443 70.8716,168.7666 63.50481,148.72944 57.48871,132.36549 45.4081,119.57686 41.35918,102.31597 39.45259,94.187442 39.04646,85.719192 40.19925,77.445142 c 0.51302,-3.68195 2.11031,-7.21837 2.59053,-10.84792 -3.61844,0.44132 -7.597245,2.87364 -10.583335,4.85087 -8.7667,5.80496 -14.12108,13.27124 -18.52083,22.6658 -0.5678,-2.38655 0.004,-5.20568 0,-7.67292 -0.007,-4.19523 -0.3691,-8.53096 -0.86916,-12.7 C 10.839225,57.262457 4.6495646,41.140628 -6.8648454,29.015753 -10.112865,25.595272 -13.670985,22.630325 -17.606925,20.030556 c -1.4769,-0.975678 -3.17712,-2.403973 -4.95538,-2.645834 m 7.9375,69.05625 v 0.52917 h -0.52917 v -0.52917 h 0.52917 m 41.53958,21.960418 c 1.79811,7.55279 2.70907,14.63701 6.41853,21.69186 6.263225,11.91181 14.559495,21.52491 16.796285,35.19355 1.01071,6.17697 -0.0857,13.10032 -1.63486,19.0508 -0.65802,2.52783 -2.36114,5.07656 -2.52995,7.67212 h -1.05833 c 3.3737,-14.35682 -8.83444,-24.97587 -16.345175,-35.38299 -8.56218,-11.86366 -10.48464,-26.14137 -5.35437,-39.87086 1.02156,-2.73368 1.84626,-6.0587 3.70787,-8.35448 z"
       id="path964" />
  </g>
</svg>
